<svg width="14" height="15" viewBox="0 0 27 30" fill="none" xmlns="http://www.w3.org/2000/svg">
<path fill-rule="evenodd" clip-rule="evenodd" d="M8.94349 7.03653C8.95033 7.00021 8.9593 6.96431 8.97036 6.92905C8.97867 6.89578 8.98827 6.86507 8.99914 6.8318C9.00176 6.82118 9.00496 6.81071 9.00874 6.80045C9.01834 6.77038 9.02921 6.73647 9.04073 6.70832C9.07097 6.62709 9.10578 6.54763 9.14501 6.47033C9.15077 6.45881 9.15653 6.44602 9.16293 6.43386C9.16932 6.42171 9.17636 6.41019 9.1834 6.39931C9.19341 6.37721 9.20496 6.35583 9.21795 6.33534C9.23248 6.30803 9.24849 6.28155 9.26593 6.25601C9.28068 6.2293 9.29758 6.20383 9.31647 6.17987C9.6098 5.74503 10.0381 5.41881 10.5352 5.25156C10.5583 5.24324 10.5819 5.23557 10.6056 5.22853C10.6293 5.22149 10.6562 5.21318 10.6817 5.20614C10.7073 5.1991 10.7342 5.19014 10.763 5.18375C10.795 5.17607 10.827 5.16967 10.8583 5.16327C10.8979 5.15386 10.9381 5.14703 10.9786 5.1428C11.1021 5.12498 11.2268 5.116 11.3516 5.11593C11.7482 5.11593 12.3253 5.28099 12.9376 5.47868C13.1673 5.54266 13.3989 5.61048 13.6305 5.67701V0.840332H8.79314C8.9646 1.46027 9.19108 2.0559 9.29408 2.63873C9.29408 2.64193 9.29408 2.64385 9.29408 2.64513C9.33193 2.86288 9.34885 3.08376 9.34462 3.30473V3.31945C9.32906 3.79073 9.15786 4.2436 8.85776 4.60731L8.80082 4.67833C8.75283 4.73719 8.69909 4.79413 8.64215 4.85298C8.53206 4.96611 8.41145 5.06851 8.28196 5.1588C8.23459 5.1931 8.18548 5.22491 8.13481 5.25412C7.62422 5.56377 7.01281 5.66158 6.4311 5.52666C6.37808 5.51669 6.32573 5.50344 6.27435 5.487L6.17775 5.45885L6.0773 5.42046L6.06963 5.41726C6.01717 5.39679 5.96662 5.37632 5.91736 5.35329L5.8777 5.33409C5.84123 5.31682 5.80668 5.29763 5.77149 5.27843C5.73253 5.25973 5.69491 5.23835 5.65889 5.21446C5.62882 5.1959 5.60003 5.17671 5.56996 5.15624C5.5399 5.13576 5.50599 5.11145 5.47464 5.08778L5.41066 5.04044C5.38827 5.02316 5.3678 5.00397 5.34668 4.9867C5.31661 4.96111 5.28783 4.93424 5.25904 4.90737L5.17651 4.82483C5.15741 4.80565 5.13947 4.78535 5.12276 4.76406C5.09752 4.73749 5.07381 4.70951 5.05175 4.68025C5.00119 4.62075 4.95501 4.55768 4.91356 4.49151L4.84958 4.39171C4.77754 4.27368 4.71753 4.14873 4.67044 4.01872C4.63176 3.92078 4.60053 3.82004 4.57704 3.71739C4.56872 3.68412 4.56104 3.64957 4.55465 3.61438C4.54524 3.57478 4.5384 3.5346 4.53417 3.49411C4.51635 3.37058 4.50737 3.24593 4.5073 3.12112C4.5073 2.7251 4.67364 2.14611 4.87197 1.53512C4.93595 1.30417 5.00377 1.07385 5.0703 0.842251H0.236823V9.97244C0.236194 10.3308 0.281562 10.6877 0.371815 11.0345C0.382691 11.0729 0.392288 11.1106 0.403803 11.1471C0.412857 11.1852 0.423963 11.2228 0.437072 11.2597C0.447948 11.2981 0.460743 11.3345 0.474818 11.371C0.488893 11.4075 0.500409 11.4439 0.514484 11.4804C0.533677 11.5296 0.55287 11.577 0.573343 11.625C0.598294 11.689 0.629003 11.7529 0.659073 11.8169C0.689142 11.8809 0.712813 11.925 0.741603 11.9769C0.743789 11.9845 0.747487 11.9917 0.752479 11.998C0.763355 12.0165 0.772952 12.0376 0.785748 12.0562L0.796624 12.0773L0.80622 12.0946C0.80622 12.0946 0.80622 12.0946 0.80622 12.0978C0.820295 12.1234 0.83629 12.1483 0.852284 12.1739C0.856831 12.1828 0.86196 12.1913 0.867638 12.1995C0.870481 12.2054 0.873686 12.2112 0.877235 12.2168C0.880434 12.2232 0.885552 12.2276 0.888751 12.234C0.894711 12.2442 0.901562 12.2539 0.909224 12.2628C0.923299 12.2878 0.939293 12.3121 0.955287 12.3358C0.971281 12.3594 0.988555 12.3863 1.00583 12.41C1.00855 12.4159 1.01222 12.4213 1.01671 12.426C1.05189 12.4752 1.08836 12.5245 1.12483 12.5718L1.14402 12.5955C1.14402 12.5955 1.14402 12.5987 1.14722 12.6006C1.24071 12.7213 1.34134 12.8362 1.44855 12.9448C1.49717 12.9934 1.54836 13.0427 1.5989 13.0907L1.60402 13.0952L1.60849 13.1003C1.61088 13.104 1.61418 13.1071 1.61809 13.1092C1.64176 13.1316 1.66543 13.1521 1.69103 13.1732C1.71662 13.1943 1.73069 13.2078 1.75116 13.2238C1.75116 13.2238 1.75564 13.2302 1.75756 13.2314C1.76035 13.2333 1.76293 13.2354 1.76524 13.2378L1.78123 13.2519C1.78123 13.2519 1.78123 13.2519 1.78635 13.2519C1.78918 13.2543 1.79217 13.2564 1.79531 13.2583C1.84649 13.3012 1.90023 13.3428 1.95269 13.3863C2.00515 13.4298 2.06017 13.4656 2.11583 13.504C2.23035 13.5814 2.34743 13.6531 2.46963 13.7196C2.6509 13.8183 2.83905 13.9038 3.03263 13.9755C3.09661 13.9992 3.16442 14.0216 3.23096 14.0395C3.29749 14.0574 3.36595 14.0804 3.43377 14.0983C3.7808 14.1883 4.13792 14.2334 4.49643 14.2327H13.6317V9.39473C13.5287 9.42352 13.4257 9.45359 13.324 9.48366C12.9005 9.61161 12.4885 9.75172 12.0841 9.84385L12.0649 9.84833C11.7718 9.9195 11.4708 9.95304 11.1693 9.94813C10.6747 9.93086 10.191 9.769 9.71825 9.34099C9.68498 9.31092 9.65427 9.27701 9.61844 9.24566C9.56151 9.19064 9.50712 9.13306 9.4585 9.07612C9.44507 9.06141 9.43291 9.04669 9.42139 9.03198C9.40988 9.01726 9.39644 9.00127 9.38493 8.98592C9.17107 8.71672 9.0202 8.40307 8.94337 8.06796C8.86654 7.73285 8.8657 7.38479 8.94093 7.04932C8.94126 7.04497 8.94211 7.04067 8.94349 7.03653Z" fill="#F2D771"/>
</svg>
