<svg width="16" height="17" viewBox="0 0 1 29" fill="none" xmlns="http://www.w3.org/2000/svg">
<path fill-rule="evenodd" clip-rule="evenodd" d="M14.2476 4.48031V13.796H9.22664C9.29318 13.5644 9.35929 13.3328 9.42497 13.1012C9.6233 12.4909 9.78836 11.9119 9.78836 11.5172C9.78831 11.3919 9.77933 11.2669 9.76149 11.1429C9.75509 11.1032 9.7487 11.0616 9.74038 11.022C9.72822 10.9618 9.71543 10.9036 9.69943 10.8448C9.68344 10.7859 9.66425 10.7302 9.64569 10.6733C9.63414 10.6354 9.61982 10.5984 9.60283 10.5626C9.58942 10.5249 9.57339 10.4881 9.55485 10.4526C9.53949 10.418 9.52158 10.3828 9.50302 10.3483C9.48653 10.3152 9.46838 10.283 9.44864 10.2517C9.43569 10.227 9.42137 10.2031 9.40578 10.18C9.39042 10.1545 9.37443 10.1308 9.35844 10.1058C9.3344 10.07 9.30856 10.0354 9.28102 10.0022C9.27271 9.99131 9.26503 9.98043 9.25543 9.96892L9.19849 9.89918C9.16203 9.85824 9.12556 9.81857 9.08717 9.78018C9.07949 9.77251 9.07118 9.76483 9.0635 9.75843C9.06153 9.75614 9.05939 9.754 9.0571 9.75203C9.02191 9.71685 8.98545 9.68358 8.94898 9.65223C8.91251 9.62088 8.88884 9.59977 8.85749 9.5761L8.81463 9.54283C8.81463 9.54283 8.81463 9.54283 8.81143 9.53963C8.80823 9.53643 8.79096 9.52683 8.77944 9.51852C8.77739 9.516 8.77476 9.51402 8.77176 9.51276C8.76949 9.51005 8.76665 9.50786 8.76345 9.50636C8.7321 9.48397 8.69947 9.46158 8.66684 9.44238L8.60287 9.40592L8.5664 9.38225C8.53249 9.36369 8.49794 9.3445 8.46276 9.32723C8.42757 9.30995 8.39302 9.29204 8.35847 9.27604C8.32392 9.26005 8.29449 9.24789 8.26187 9.2351C8.16502 9.19468 8.06539 9.16133 7.96373 9.13529C7.93175 9.12554 7.89929 9.11743 7.86649 9.11098C7.86242 9.10924 7.8581 9.10816 7.85369 9.10778C7.53269 9.03555 7.19991 9.03318 6.87792 9.10085C6.55592 9.16852 6.25225 9.30463 5.98748 9.49996C5.96188 9.51788 5.93629 9.53707 5.91134 9.5569C5.88346 9.57638 5.85695 9.59775 5.83201 9.62088C5.80514 9.64263 5.77827 9.6663 5.75076 9.6919C5.72325 9.71749 5.68678 9.75203 5.65735 9.78402C5.60041 9.84288 5.54667 9.89982 5.49869 9.95868C5.47264 9.98775 5.44829 10.0183 5.42576 10.0502C5.13212 10.4146 4.96665 10.8657 4.95488 11.3336C4.95058 11.5541 4.9675 11.7746 5.00542 11.9919C5.00542 11.9919 5.00542 11.9964 5.00542 11.9976C5.09115 12.4819 5.26133 12.9797 5.41744 13.4902C5.44815 13.5919 5.47822 13.695 5.50637 13.798H0.674805V8.95744L1.36768 9.15385C1.97994 9.35218 2.55765 9.51852 2.95367 9.51852C3.0785 9.51876 3.20316 9.50978 3.32666 9.49165C3.86506 9.41548 4.36147 9.15825 4.73416 8.76231C4.74029 8.75734 4.74568 8.75152 4.75016 8.74503C4.77255 8.72264 4.79302 8.69897 4.81413 8.6753L4.87427 8.60236C4.91266 8.55438 4.9472 8.50704 4.98047 8.45777C5.01374 8.40851 5.04445 8.35925 5.0758 8.30743C5.10715 8.25561 5.12954 8.21338 5.15385 8.16604C5.21861 8.03896 5.27151 7.90617 5.31188 7.76938L5.32531 7.72523C5.32531 7.72523 5.32531 7.72523 5.32531 7.7214C5.32531 7.71692 5.32851 7.71244 5.32979 7.70796C5.33047 7.7061 5.33047 7.70406 5.32979 7.7022C5.3301 7.70051 5.3301 7.69878 5.32979 7.69708C5.34067 7.65742 5.34834 7.61775 5.35666 7.57809C5.36114 7.55441 5.36626 7.5301 5.37265 7.50643C5.37905 7.48276 5.38161 7.45909 5.38481 7.4335C5.38801 7.40791 5.39121 7.39255 5.39441 7.36952C5.3976 7.34649 5.4008 7.32858 5.40272 7.30554C5.40272 7.27036 5.40912 7.23581 5.40912 7.20254C5.41242 7.17088 5.41349 7.13903 5.41232 7.10721C5.41232 7.07267 5.41232 7.03876 5.41232 7.00421C5.40108 6.54122 5.24713 6.09301 4.97152 5.72083C4.95552 5.69716 4.93633 5.67348 4.91905 5.64981C4.84798 5.55737 4.77014 5.47034 4.68618 5.38943C4.65739 5.36128 4.6286 5.3344 4.60045 5.30881C4.58573 5.29474 4.57102 5.2813 4.5563 5.26915L4.51152 5.2314C4.13205 4.89384 3.64562 4.70104 3.13793 4.68695C2.83637 4.68264 2.53546 4.71617 2.24225 4.78676C2.23682 4.78816 2.23148 4.78987 2.22625 4.79188C1.82192 4.884 1.40798 5.02347 0.983175 5.15207C0.881452 5.18214 0.778447 5.21221 0.675444 5.24036V0.220703H9.98669C10.1338 0.220703 10.2784 0.22838 10.4211 0.242455C10.7033 0.271196 10.982 0.328209 11.2528 0.412635C11.385 0.453381 11.5149 0.501438 11.6418 0.556584C11.7058 0.582175 11.7697 0.612244 11.8337 0.642313C11.8766 0.662786 11.9194 0.685178 11.9617 0.70629L11.993 0.723564C12.0122 0.73444 12.0314 0.744037 12.0506 0.755553C12.0698 0.767069 12.0883 0.776026 12.1075 0.786902C12.111 0.788578 12.1142 0.790731 12.1171 0.793299C12.1218 0.795091 12.1261 0.797689 12.1299 0.800977C12.134 0.802333 12.1377 0.804512 12.1408 0.807375C12.1408 0.807375 12.1472 0.810573 12.1504 0.812493C12.1741 0.825288 12.1965 0.839363 12.2189 0.853438C12.2293 0.859083 12.2394 0.865498 12.2489 0.872631C12.2739 0.886706 12.2975 0.902701 12.3219 0.918695L12.3583 0.942366L12.4345 0.994828L12.4914 1.03577C12.4914 1.03577 12.4914 1.03577 12.4946 1.03577C12.5106 1.04665 12.5247 1.05753 12.5387 1.06904C12.5588 1.08236 12.5778 1.09712 12.5957 1.11319C12.6353 1.14325 12.6737 1.17332 12.7115 1.20723C12.72 1.2128 12.7282 1.219 12.7358 1.22579L12.7403 1.2309L12.762 1.24882C12.7831 1.26673 12.8042 1.28528 12.826 1.30512C12.8309 1.30824 12.8352 1.31213 12.8388 1.31663C12.8508 1.3249 12.8619 1.33433 12.8721 1.34478L12.897 1.36846C12.9047 1.37613 12.9117 1.38445 12.92 1.39405C12.9316 1.40364 12.9405 1.41452 12.9501 1.42412L12.9981 1.47146C13.0122 1.48425 13.025 1.49705 13.0378 1.51112C13.0493 1.52391 13.0614 1.53608 13.0742 1.54759C13.0947 1.56998 13.1171 1.59365 13.1382 1.61797C13.1433 1.62435 13.1491 1.63014 13.1555 1.63524C13.1612 1.64067 13.1665 1.64644 13.1715 1.65251C13.1826 1.66361 13.1931 1.67536 13.2028 1.6877C13.2275 1.71329 13.2508 1.7402 13.2726 1.76831C13.3033 1.8035 13.3314 1.83805 13.3583 1.87452C13.3852 1.91098 13.4299 1.96792 13.4632 2.0159C13.4728 2.02803 13.4818 2.04062 13.4901 2.05365C13.495 2.05959 13.4993 2.06602 13.5029 2.07284C13.515 2.09178 13.5254 2.11168 13.5342 2.13234C13.5425 2.14322 13.5502 2.15601 13.5585 2.16881C13.5931 2.21764 13.6247 2.26849 13.6532 2.32108C13.6833 2.37354 13.714 2.42536 13.7422 2.47782C13.7613 2.51621 13.7818 2.55395 13.7991 2.59234L13.8471 2.68703C13.8644 2.72541 13.8835 2.76508 13.8995 2.80474C13.9104 2.82842 13.92 2.85209 13.9296 2.87576C13.9501 2.92374 13.9693 2.97109 13.9865 3.02035C14.0362 3.1502 14.0789 3.28261 14.1145 3.41701C14.2041 3.7643 14.2488 4.12165 14.2476 4.48031Z" fill="#F2D771"/>
</svg>
