<svg width="20" height="10" viewBox="0 0 12 30" fill="none" xmlns="http://www.w3.org/2000/svg">
<path fill-rule="evenodd" clip-rule="evenodd" d="M13.5326 5.02283L13.5166 5.00683H13.4993C13.3851 4.99174 13.2801 4.93594 13.2037 4.84967C13.1273 4.7634 13.0846 4.65247 13.0835 4.53724C13.0829 4.51757 13.084 4.49788 13.0867 4.47838C13.1506 3.98256 13.3343 3.39077 13.4993 2.82585C13.6644 2.29804 13.8134 1.78558 13.8134 1.52263C13.8155 1.12698 13.6609 0.746578 13.3835 0.46445C13.2536 0.328261 13.0973 0.219962 12.9242 0.146156C12.7511 0.0723494 12.5647 0.0345843 12.3765 0.0351628C12.1859 0.0346928 11.9971 0.072439 11.8212 0.146172C11.6454 0.219905 11.4862 0.328129 11.3529 0.46445C11.0748 0.746371 10.9191 1.12663 10.9198 1.52263C10.9198 1.78558 11.0688 2.29804 11.2339 2.82585C11.4002 3.38757 11.5966 3.98256 11.6478 4.47838C11.6624 4.58924 11.6369 4.70165 11.5761 4.79545C11.5152 4.88925 11.4229 4.95829 11.3158 4.9902C11.2827 5.01386 11.2425 5.02559 11.2019 5.02347H5.85339V10.3918L5.83612 10.4078V10.4251C5.81593 10.5463 5.74968 10.6551 5.65121 10.7286C5.55273 10.8022 5.42966 10.8348 5.30767 10.8198C4.81185 10.7558 4.22006 10.5722 3.65706 10.4078C3.12732 10.2427 2.61487 10.0937 2.35192 10.0937C1.95626 10.0916 1.57586 10.2462 1.29374 10.5236C1.15826 10.6558 1.0506 10.8137 0.977096 10.9882C0.90359 11.1626 0.865723 11.35 0.865723 11.5392C0.865723 11.7285 0.90359 11.9159 0.977096 12.0903C1.0506 12.2647 1.15826 12.4227 1.29374 12.5549C1.57618 12.8318 1.95637 12.9863 2.35192 12.9848C2.61487 12.9848 3.11133 12.8357 3.65706 12.6707C4.21814 12.5056 4.81185 12.3233 5.30767 12.258C5.4226 12.2429 5.53913 12.2695 5.63609 12.3331C5.73306 12.3966 5.80403 12.4927 5.83612 12.6041V12.6867H5.85339V18.2354H14.9855C16.1139 18.23 17.1946 17.7794 17.9925 16.9815C18.7904 16.1836 19.241 15.1029 19.2464 13.9745V5.02283H13.5326Z" fill="#E0C373"/>
</svg>
