<svg width="14" height="15" viewBox="0 0 27 30" fill="none" xmlns="http://www.w3.org/2000/svg">
<path fill-rule="evenodd" clip-rule="evenodd" d="M18.4371 7.10721C18.4371 7.1392 18.4371 7.17119 18.4339 7.20254C18.4326 7.23491 18.4294 7.26717 18.4243 7.29915C18.4164 7.35966 18.4042 7.41952 18.3878 7.47828C18.3801 7.50835 18.3705 7.53714 18.3609 7.56529C18.3513 7.59344 18.3437 7.61455 18.3341 7.64014C18.3341 7.64014 18.3309 7.64782 18.3289 7.65102L18.3245 7.66254C18.3211 7.66835 18.3185 7.67459 18.3168 7.68109C18.3086 7.69606 18.3011 7.71143 18.2944 7.72715C18.2803 7.75594 18.2643 7.78473 18.2483 7.8116C18.2304 7.84406 18.2103 7.87526 18.1882 7.90501C18.1865 7.90787 18.1843 7.91046 18.1818 7.91269C18.1602 7.94419 18.1369 7.97451 18.1121 8.00354C18.0791 8.0423 18.0441 8.07925 18.0071 8.11422C17.9879 8.13341 17.9675 8.15068 17.9489 8.16796C17.9319 8.18413 17.9137 8.1991 17.8945 8.21274C17.487 8.52815 16.9592 8.54862 16.4103 8.45202C16.4058 8.45203 16.4014 8.45093 16.3975 8.44882C16.171 8.38996 15.9106 8.31255 15.6457 8.23002C15.3809 8.14748 15.1224 8.07455 14.8665 8.00673C14.1685 7.78153 13.6164 7.66062 13.4865 8.13149C13.4784 8.15858 13.472 8.18614 13.4673 8.21402L13.45 8.23002V13.6143H8.07979C7.86611 13.6195 7.74839 13.7237 7.69593 13.8914C7.65447 13.9742 7.63971 14.0679 7.6537 14.1594C7.65818 14.2023 7.66266 14.2452 7.66906 14.2874C7.66906 14.2938 7.66906 14.2989 7.66906 14.3053C7.7196 14.8318 7.98894 15.5708 8.18087 16.199C8.18637 16.2118 8.19066 16.2251 8.19367 16.2387C8.20519 16.2764 8.21606 16.3129 8.22566 16.3513C8.23334 16.3782 8.24165 16.4063 8.24805 16.4319C8.24805 16.4421 8.25381 16.4517 8.25637 16.462L8.26404 16.4914L8.2698 16.5112V16.5202V16.5272L8.27556 16.5509C8.28516 16.5874 8.29475 16.6238 8.30435 16.6584C8.31395 16.6929 8.31523 16.7076 8.32034 16.7332C8.32354 16.7441 8.32482 16.7556 8.32802 16.7665L8.33762 16.8158C8.34193 16.8319 8.34513 16.8484 8.34722 16.865C8.35169 16.8855 8.35489 16.906 8.35809 16.9252C8.36129 16.9444 8.36449 16.9808 8.36769 17.0058C8.3707 17.0248 8.37219 17.0441 8.37217 17.0634C8.37312 17.0806 8.37312 17.0979 8.37217 17.1152C8.37217 17.144 8.37217 17.1708 8.37217 17.1996C8.37217 17.2489 8.36449 17.2962 8.35681 17.3436C8.35169 17.3736 8.3453 17.4037 8.34082 17.4344C8.33634 17.4651 8.3293 17.4798 8.32354 17.5042C8.31779 17.5285 8.30883 17.5534 8.30243 17.5771C8.29603 17.6008 8.28708 17.6244 8.27876 17.6468C8.27538 17.6529 8.2728 17.6593 8.27108 17.666L8.25189 17.7166L8.24741 17.723C8.24421 17.7313 8.23909 17.7402 8.23589 17.7485C8.2327 17.7569 8.22502 17.769 8.2199 17.7799C8.20902 17.8004 8.19815 17.8228 8.18663 17.8439C8.15206 17.9074 8.11293 17.9683 8.06955 18.0262C8.05036 18.0518 8.03117 18.0755 8.01069 18.0991C7.97091 18.1446 7.92817 18.1873 7.88274 18.2271C7.86227 18.2463 7.83988 18.2636 7.81876 18.2815C7.79765 18.2994 7.77398 18.316 7.75031 18.332C7.70494 18.3641 7.65796 18.3937 7.60956 18.4209L7.5507 18.451L7.49056 18.4779C7.44914 18.497 7.40637 18.513 7.36261 18.5259L7.33701 18.5336C7.30375 18.5444 7.27304 18.5527 7.23721 18.5604C7.20138 18.5681 7.16875 18.5745 7.13421 18.5809H7.12909C7.10222 18.586 7.07407 18.5892 7.0472 18.5924C7.03911 18.5918 7.03098 18.5918 7.02289 18.5924C6.99921 18.5924 6.97554 18.5924 6.95187 18.5924C6.94122 18.5931 6.93054 18.5931 6.91988 18.5924V18.5924C6.89493 18.5924 6.86934 18.5924 6.84375 18.5924C6.81816 18.5924 6.79321 18.5924 6.76762 18.586C6.76192 18.5846 6.75615 18.5836 6.75034 18.5828C6.70733 18.5776 6.66462 18.5701 6.62239 18.5604C6.56903 18.5491 6.51646 18.5344 6.465 18.5163C6.43685 18.5067 6.40806 18.4952 6.37928 18.4843C6.35049 18.4734 6.32873 18.4606 6.30186 18.451C6.27435 18.4369 6.24748 18.4222 6.22253 18.4082C6.19007 18.3904 6.15867 18.3707 6.12848 18.3493C6.11121 18.3384 6.09394 18.3256 6.07666 18.3128C6.05417 18.2975 6.03279 18.2806 6.01269 18.2623C5.97622 18.2322 5.94167 18.1983 5.9084 18.167C5.88285 18.1416 5.85892 18.1147 5.83675 18.0863C5.77202 18.0056 5.71585 17.9183 5.66913 17.826C5.65463 17.7982 5.64181 17.7696 5.63074 17.7402C5.50855 17.4376 5.49895 17.0934 5.54821 16.7364C5.60707 16.4805 5.7056 16.1517 5.80988 15.8056C5.89689 15.5074 5.99093 15.1984 6.06579 14.9016C6.15344 14.6181 6.21677 14.3622 6.21997 14.1562V14.1422C6.22149 14.1268 6.22149 14.1114 6.21997 14.0961C6.21992 14.0345 6.20752 13.9736 6.1835 13.917C6.1839 13.9162 6.1841 13.9153 6.1841 13.9144C6.1841 13.9135 6.1839 13.9126 6.1835 13.9118C6.16434 13.8557 6.13293 13.8045 6.09154 13.762C6.05016 13.7196 5.99984 13.6868 5.94423 13.6662C5.90057 13.6457 5.85392 13.6323 5.80604 13.6265H5.78877L5.77277 13.6092H0.236821V4.48095C0.236272 4.12242 0.281638 3.76529 0.371813 3.41829C0.40828 3.28329 0.449226 3.15214 0.499768 3.02163C0.531117 2.93782 0.563745 2.85337 0.602771 2.77084C0.625163 2.72157 0.648835 2.67295 0.672506 2.62497C0.683382 2.6013 0.696178 2.57763 0.707694 2.55395C0.732858 2.50448 0.759729 2.45522 0.788305 2.40617C0.807498 2.37162 0.827971 2.33643 0.847164 2.30316C0.851244 2.2977 0.854881 2.29193 0.85804 2.28589C0.861553 2.28227 0.864181 2.27789 0.865718 2.27309L0.940571 2.15537C0.969361 2.11315 0.997511 2.07029 1.02758 2.02742L1.0391 2.01335C1.04229 2.01015 1.04357 2.00503 1.04677 2.00183C1.06725 1.97368 1.08772 1.94681 1.11075 1.91994C1.11041 1.9189 1.11041 1.91778 1.11075 1.91674L1.13378 1.88603C1.15681 1.85596 1.18049 1.82781 1.20288 1.79774C1.25342 1.7376 1.30588 1.67683 1.35834 1.61989C1.4108 1.56295 1.44855 1.52328 1.49653 1.4753C1.63929 1.33026 1.79239 1.19576 1.95461 1.07288C2.01027 1.03129 2.06401 0.990349 2.12095 0.951963C2.23547 0.874551 2.35255 0.802896 2.47475 0.73636C2.65602 0.637636 2.84417 0.552112 3.03774 0.480451C3.36952 0.35821 3.71537 0.278249 4.06714 0.242455C4.20981 0.22838 4.35568 0.220703 4.50154 0.220703H13.4494V5.95051L13.4558 5.96778C13.4585 5.9844 13.4621 6.00084 13.4667 6.01704V6.0356C13.4987 6.14708 13.5697 6.24339 13.6666 6.30711C13.7635 6.37084 13.8801 6.39775 13.9951 6.38299C14.0028 6.38299 14.0092 6.38299 14.0169 6.37979C14.4199 6.38299 14.9861 6.18786 15.5459 5.99913L15.6457 5.97034C16.1422 5.81487 16.6227 5.6754 16.8984 5.65813C16.9159 5.65718 16.9334 5.65718 16.9509 5.65813C16.9797 5.65813 17.0065 5.65813 17.0353 5.65813C17.0836 5.66082 17.1316 5.66616 17.1793 5.67412C17.2305 5.6818 17.2791 5.69268 17.3283 5.70419C17.361 5.71184 17.3933 5.72123 17.4249 5.73234C17.4536 5.74092 17.4818 5.75096 17.5094 5.76241C17.5162 5.76308 17.5228 5.76526 17.5286 5.76881C17.5567 5.78033 17.5836 5.79312 17.6111 5.80528C17.6386 5.81743 17.6809 5.84046 17.7141 5.85966C17.7141 5.85966 17.7173 5.85966 17.7186 5.85966C17.7389 5.8711 17.7586 5.8837 17.7775 5.8974L17.7871 5.90252C17.7926 5.90549 17.7978 5.90915 17.8024 5.9134C17.812 5.91846 17.8212 5.92424 17.8299 5.93067C17.8299 5.93067 17.8299 5.93067 17.8331 5.93067C17.836 5.9338 17.8392 5.93659 17.8427 5.93899C17.8449 5.94136 17.8475 5.94332 17.8504 5.94475C17.9055 5.98536 17.9575 6.03006 18.0059 6.07846C18.0717 6.14434 18.1316 6.21584 18.185 6.29214C18.2106 6.33053 18.2362 6.3702 18.2579 6.40986C18.2797 6.44953 18.3008 6.49239 18.3219 6.53782C18.3357 6.56765 18.3478 6.59819 18.3584 6.6293C18.3634 6.64226 18.3677 6.65551 18.3712 6.66897C18.3756 6.68045 18.3792 6.6922 18.382 6.70416C18.387 6.71466 18.3902 6.7259 18.3916 6.73743C18.3916 6.73743 18.3916 6.73743 18.3916 6.73743C18.393 6.74052 18.3941 6.74373 18.3948 6.74702C18.4242 6.86479 18.4384 6.98584 18.4371 7.10721V7.10721Z" fill="#E0C373"/>
</svg>
