<svg width="31" height="31" viewBox="0 0 31 31" fill="none" xmlns="http://www.w3.org/2000/svg">
<path fill-rule="evenodd" clip-rule="evenodd" d="M28.8662 1.61927C28.3597 1.10837 27.7574 0.702384 27.0937 0.424531C26.4301 0.146678 25.7182 0.00241642 24.9988 1.79931e-06H5.51068C4.79296 -0.000580935 4.08216 0.140387 3.41897 0.414838C2.75579 0.689289 2.15324 1.09183 1.64582 1.59943L1.62983 1.61671C1.12133 2.12386 0.718038 2.72648 0.443119 3.38995C0.1682 4.05343 0.0270701 4.76468 0.0278351 5.48285V24.971C0.033062 26.4234 0.612416 27.8149 1.63954 28.8419C2.66666 29.8689 4.05821 30.4481 5.51068 30.4532H24.9988C25.7187 30.455 26.4317 30.3128 27.0958 30.0351C27.76 29.7573 28.3619 29.3496 28.8662 28.8358C29.377 28.3297 29.7829 27.7278 30.0608 27.0647C30.3386 26.4015 30.4829 25.69 30.4855 24.971V5.48285C30.4828 4.76403 30.3384 4.05278 30.0606 3.38982C29.7827 2.72686 29.3769 2.1252 28.8662 1.61927ZM1.24916 5.48285C1.24861 5.12432 1.29398 4.7672 1.38415 4.42019C1.41942 4.2857 1.46214 4.15328 1.51211 4.02353C1.54346 3.93972 1.57608 3.85527 1.61511 3.77274C1.68453 3.61085 1.76624 3.4545 1.8595 3.30507C1.86358 3.29961 1.86722 3.29383 1.87038 3.28779C1.87389 3.28418 1.87652 3.2798 1.87806 3.275C1.89085 3.25133 1.90557 3.22765 1.92092 3.20334C1.92924 3.18927 1.93884 3.17519 1.94779 3.1624L1.95291 3.15728C1.98298 3.10994 2.01305 3.06387 2.04632 3.01781C2.04605 3.01676 2.04605 3.01566 2.04632 3.01461C2.04933 3.00947 2.05298 3.00474 2.05719 3.00053C2.05941 2.99561 2.06268 2.99124 2.06679 2.98774C2.06679 2.98774 2.06679 2.98454 2.06679 2.98262C2.07443 2.97104 2.08276 2.95993 2.09174 2.94935C2.09414 2.94585 2.09693 2.94263 2.10006 2.93976C2.11605 2.91608 2.13461 2.89113 2.1538 2.86682C2.1634 2.85467 2.17427 2.83995 2.18579 2.82716L2.19346 2.8182L2.1973 2.81308C2.20562 2.80074 2.21504 2.78917 2.22545 2.77853C2.23871 2.76124 2.25302 2.74479 2.26832 2.72927C2.34334 2.63804 2.42321 2.5509 2.50759 2.46824C2.57157 2.40427 2.63555 2.34605 2.69952 2.28719L2.70464 2.28271C2.73791 2.25392 2.76862 2.22513 2.80573 2.19698C2.85691 2.15412 2.90937 2.11253 2.96311 2.07478C3.01685 2.03704 3.07251 1.99225 3.12945 1.95387C3.24397 1.87645 3.36105 1.8048 3.48325 1.73826C3.66452 1.63954 3.85267 1.55402 4.04625 1.48235C4.37802 1.36011 4.72388 1.28015 5.07564 1.24436C5.21831 1.23028 5.36418 1.22261 5.51005 1.22261H14.4617V6.93641C14.4629 6.94766 14.4651 6.95879 14.4681 6.96968L14.479 7.00167V7.01895C14.5487 7.27933 14.7503 7.37594 15.0292 7.37914C15.4911 7.31516 16.0349 7.15394 16.5583 6.99847C17.0528 6.83213 17.5416 6.67155 17.9108 6.65747C17.9282 6.65653 17.9457 6.65653 17.9632 6.65747C17.992 6.65747 18.0189 6.65747 18.0477 6.65747C18.0959 6.66017 18.144 6.66551 18.1916 6.67347C18.3574 6.69472 18.518 6.74565 18.6657 6.82381C18.6868 6.83469 18.7073 6.84621 18.7265 6.85708C18.7271 6.85669 18.7279 6.85648 18.7287 6.85648C18.7295 6.85648 18.7303 6.85669 18.7309 6.85708H18.7341C18.7514 6.86609 18.7679 6.87657 18.7834 6.88843L18.7917 6.89355C18.8097 6.90336 18.8266 6.91493 18.8423 6.9281C18.8423 6.9281 18.8423 6.9281 18.8455 6.9281C18.8483 6.93123 18.8516 6.93402 18.8551 6.93641C18.8592 6.93828 18.863 6.94065 18.8666 6.94345C18.8666 6.94345 18.8666 6.94345 18.8698 6.94345C18.8806 6.94982 18.8906 6.95732 18.8998 6.96584C18.9325 6.98876 18.9629 7.01468 18.9907 7.04326C19.0092 7.06053 19.0284 7.07972 19.0476 7.1002C19.1076 7.16041 19.1606 7.22715 19.2057 7.29917C19.2101 7.30492 19.2133 7.31068 19.2172 7.31644C19.2267 7.32954 19.235 7.34346 19.2421 7.35802C19.2473 7.3642 19.2517 7.3711 19.2549 7.3785C19.2638 7.39084 19.2714 7.40414 19.2773 7.41816C19.2802 7.42131 19.2823 7.42501 19.2837 7.42904C19.2991 7.46103 19.3151 7.49302 19.3278 7.52628C19.3416 7.55612 19.3538 7.58666 19.3643 7.61777C19.3694 7.63073 19.3736 7.64398 19.3771 7.65744C19.3815 7.66892 19.3851 7.68067 19.388 7.69263C19.3929 7.70313 19.3962 7.71436 19.3976 7.72589L19.3976 7.72576C19.4008 7.73534 19.4008 7.73534 19.404 7.74492L19.404 7.74509C19.4132 7.7773 19.4206 7.80997 19.4264 7.84297C19.4287 7.85394 19.4302 7.86506 19.4309 7.87624C19.4359 7.90199 19.4391 7.92808 19.4405 7.95429C19.4435 7.96945 19.445 7.98489 19.4449 8.00036C19.4449 8.0317 19.4481 8.06433 19.4481 8.09376C19.4481 8.12319 19.4481 8.1539 19.4449 8.18397C19.4417 8.21404 19.4449 8.22875 19.4392 8.24795C19.4369 8.27417 19.4331 8.30024 19.4277 8.326C19.42 8.37526 19.4085 8.42453 19.3963 8.47187C19.3867 8.50066 19.3771 8.53073 19.3675 8.5576C19.3602 8.57957 19.3512 8.60096 19.3406 8.62157C19.3406 8.62157 19.3374 8.62925 19.3355 8.63245L19.331 8.64397C19.3277 8.64979 19.3251 8.65602 19.3234 8.66252C19.3151 8.67749 19.3077 8.69286 19.301 8.70858C19.2869 8.73737 19.2709 8.76616 19.2549 8.79303C19.237 8.82549 19.2169 8.85669 19.1948 8.88644C19.193 8.8893 19.1909 8.89189 19.1884 8.89412C19.1668 8.92562 19.1435 8.95594 19.1186 8.98497C19.0857 9.02373 19.0507 9.06068 19.0137 9.09565C18.9945 9.11484 18.9741 9.13211 18.9555 9.14939C18.9384 9.16556 18.9203 9.18053 18.9011 9.19417C18.6342 9.41016 18.3008 9.52723 17.9575 9.52557C17.7744 9.51529 17.593 9.48438 17.4168 9.43345C17.4124 9.43346 17.408 9.43236 17.4041 9.43025C17.1776 9.37139 16.9172 9.29398 16.6523 9.21144C16.3875 9.12891 16.1347 9.07645 15.8788 9.00864C15.5928 8.92754 15.302 8.8645 15.0081 8.8199C14.8999 8.80654 14.7904 8.83026 14.6974 8.88721C14.6044 8.94415 14.5335 9.03094 14.4963 9.13339C14.4882 9.16048 14.4818 9.18804 14.4771 9.21592L14.4598 14.6162H9.09213C9.05277 14.6204 9.01444 14.6315 8.97889 14.6489C8.85965 14.6912 8.76208 14.7791 8.70763 14.8933C8.6741 15.0224 8.66499 15.1568 8.68076 15.2893C8.68076 15.2957 8.68076 15.3008 8.68076 15.3072C8.74473 15.7704 8.91236 16.3046 9.07742 16.8119C9.11708 16.945 9.15611 17.0768 9.19258 17.2009C9.19808 17.2137 9.20236 17.227 9.20537 17.2406C9.21689 17.2783 9.22776 17.3148 9.23736 17.3532C9.24504 17.3801 9.25335 17.4082 9.25975 17.4338C9.25975 17.444 9.26551 17.4536 9.26807 17.4639L9.2815 17.508C9.28453 17.5159 9.28667 17.524 9.2879 17.5323C9.29942 17.5765 9.31029 17.6193 9.31989 17.6603C9.32949 17.7012 9.33716 17.7332 9.34356 17.7684L9.35316 17.8177C9.35747 17.8338 9.36067 17.8503 9.36275 17.8669C9.36723 17.8874 9.37043 17.9079 9.37363 17.9271C9.37683 17.9463 9.38003 17.9827 9.38323 18.0077C9.38624 18.0267 9.38773 18.046 9.38771 18.0653C9.38866 18.0825 9.38866 18.0998 9.38771 18.1171C9.38771 18.1459 9.38771 18.1727 9.38771 18.2015C9.38771 18.2508 9.38003 18.2981 9.37235 18.3455C9.36723 18.3755 9.36084 18.4056 9.35636 18.4363C9.3154 18.6455 9.22842 18.8429 9.10172 19.0143C8.97502 19.1857 8.81178 19.3268 8.62382 19.4273L8.56496 19.4574C8.54591 19.4684 8.52575 19.4774 8.50482 19.4843C8.4634 19.5034 8.42063 19.5194 8.37687 19.5323L8.35127 19.5399C8.31888 19.5519 8.28548 19.5609 8.25147 19.5668C8.2177 19.5762 8.18327 19.583 8.14847 19.5873H8.14335C8.12799 19.5905 8.11008 19.5937 8.09473 19.5956C8.0837 19.5973 8.0726 19.5983 8.06146 19.5988C8.05337 19.5982 8.04524 19.5982 8.03715 19.5988C7.94663 19.6079 7.85535 19.6062 7.76524 19.5937H7.75181C7.72887 19.5926 7.70612 19.589 7.68399 19.5828C7.67751 19.5824 7.67108 19.5813 7.6648 19.5796C7.6648 19.5796 7.6616 19.5796 7.6584 19.5796C7.65545 19.5803 7.65239 19.5803 7.64944 19.5796C7.62405 19.576 7.59901 19.5702 7.57459 19.5623C7.5458 19.554 7.51765 19.5463 7.48886 19.5367C7.48327 19.5353 7.47789 19.5332 7.47287 19.5303C7.44755 19.5223 7.42276 19.5127 7.39865 19.5015C7.36986 19.4907 7.34171 19.4779 7.31292 19.4638C7.28518 19.4521 7.25862 19.4377 7.23359 19.4209C7.20113 19.4031 7.16973 19.3835 7.13955 19.3621C7.12227 19.3512 7.105 19.3384 7.08772 19.3256C7.06523 19.3103 7.04385 19.2934 7.02375 19.2751C6.98671 19.2459 6.95186 19.214 6.91946 19.1797C6.89391 19.1544 6.86998 19.1275 6.84781 19.0991C6.78131 19.0196 6.725 18.9322 6.68019 18.8387C6.66569 18.811 6.65287 18.7823 6.6418 18.753C6.55297 18.555 6.50697 18.3405 6.50681 18.1235C6.51234 17.9973 6.52991 17.872 6.55927 17.7492C6.645 17.128 6.90795 16.4697 7.07941 15.9143C7.1438 15.6669 7.19358 15.4159 7.22847 15.1626V15.1485C7.23038 15.0721 7.21912 14.9959 7.19521 14.9233C7.1956 14.9225 7.19581 14.9217 7.19581 14.9208C7.19581 14.9199 7.1956 14.919 7.19521 14.9182C7.14869 14.8095 7.06341 14.7219 6.95593 14.6725C6.91134 14.6546 6.86504 14.6413 6.81774 14.6329H6.80047L1.25108 14.6156L1.24916 5.48285ZM14.6441 29.2318H5.51068C5.15218 29.2326 4.79506 29.1875 4.44802 29.0975C4.38021 29.0796 4.31175 29.061 4.24521 29.0386C4.17868 29.0162 4.11214 28.9958 4.04689 28.9747C3.85331 28.903 3.66516 28.8175 3.48389 28.7187C3.36169 28.6548 3.24461 28.5806 3.13009 28.5031C3.07443 28.4648 3.02069 28.4251 2.96695 28.3854C2.91321 28.3458 2.86203 28.3048 2.80957 28.2575C2.80643 28.2556 2.80344 28.2534 2.80061 28.2511C2.80061 28.2511 2.80061 28.2511 2.79549 28.2511L2.7795 28.237C2.77719 28.2346 2.77461 28.2324 2.77182 28.2306C2.74943 28.212 2.72576 28.1929 2.70784 28.1724C2.68993 28.1519 2.65858 28.1308 2.63491 28.1084C2.631 28.1063 2.6277 28.1032 2.62531 28.0994L2.62083 28.0943L2.61571 28.0898C2.56325 28.0438 2.51399 27.9945 2.46537 27.944C2.35815 27.8354 2.25753 27.7204 2.16404 27.5998C2.16404 27.5998 2.16084 27.5966 2.16084 27.5947L2.14164 27.571C2.10326 27.5237 2.06679 27.4744 2.03352 27.4251C2.02904 27.4204 2.02536 27.415 2.02265 27.4091C2.00537 27.3855 1.98746 27.3599 1.9721 27.3349C1.95675 27.31 1.92732 27.2709 1.90813 27.2332C1.90493 27.2268 1.89981 27.2223 1.89661 27.2159C1.89306 27.2104 1.88986 27.2046 1.88701 27.1986C1.88134 27.1905 1.87621 27.1819 1.87166 27.1731C1.85566 27.1475 1.83967 27.1225 1.8256 27.0969C1.8256 27.0969 1.8256 27.0969 1.8256 27.0937L1.816 27.0765L1.80512 27.0553C1.79233 27.0368 1.78273 27.0157 1.77185 26.9971C1.76686 26.9909 1.76316 26.9837 1.76098 26.976C1.73219 26.9242 1.7034 26.8698 1.67845 26.8161C1.6535 26.7623 1.61767 26.6881 1.59272 26.6241C1.57225 26.5761 1.55305 26.5288 1.53386 26.4795C1.51978 26.4431 1.50699 26.4066 1.49419 26.3701C1.4814 26.3337 1.46732 26.2972 1.45645 26.2588C1.44334 26.2219 1.43223 26.1843 1.42318 26.1462C1.41166 26.1098 1.40207 26.072 1.39119 26.0336C1.30094 25.6868 1.25557 25.3299 1.2562 24.9716V15.8388H6.09032C6.02634 16.0704 5.95725 16.3008 5.89199 16.5317C5.69366 17.1427 5.52732 17.7217 5.52732 18.1177C5.52739 18.2425 5.53637 18.3672 5.55419 18.4907C5.56059 18.5316 5.56698 18.5713 5.57466 18.611C5.58234 18.6506 5.58874 18.6807 5.59705 18.714C5.62221 18.8162 5.6534 18.9168 5.69046 19.0153C5.74082 19.1439 5.8007 19.2686 5.8696 19.3883L5.93357 19.4881C5.97644 19.5521 6.0225 19.6161 6.07176 19.6768C6.09383 19.7061 6.11754 19.7341 6.14278 19.7607C6.15948 19.7819 6.17743 19.8022 6.19652 19.8214L6.27905 19.904C6.30784 19.9308 6.33663 19.9577 6.3667 19.9833C6.38717 20.0006 6.40765 20.0198 6.43068 20.037L6.49465 20.0844C6.52664 20.108 6.55863 20.1304 6.58998 20.1528C6.62133 20.1752 6.64884 20.1925 6.67891 20.2111C6.71492 20.2349 6.75255 20.2563 6.79151 20.275C6.8267 20.2942 6.86124 20.3134 6.89771 20.3307L6.93738 20.3499C6.98664 20.3736 7.03718 20.394 7.08964 20.4139L7.09732 20.4171L7.19776 20.4554L7.29437 20.4836C7.34491 20.4983 7.39865 20.5124 7.45111 20.5233C7.61314 20.5586 7.77854 20.5762 7.94438 20.5757C8.36953 20.5766 8.78727 20.4644 9.15483 20.2507C9.20537 20.2206 9.25463 20.1867 9.30198 20.1554C9.43147 20.0651 9.55208 19.9627 9.66217 19.8496C9.71911 19.7907 9.77285 19.7338 9.82083 19.6749L9.87777 19.6039C10.1608 19.2305 10.3298 18.7833 10.3646 18.316V18.3013C10.3689 18.0804 10.3519 17.8595 10.3141 17.6417C10.3141 17.6417 10.3141 17.6417 10.3141 17.6353C10.2463 17.3071 10.1286 16.9252 10.0115 16.5298C9.94751 16.2988 9.86242 16.0685 9.81316 15.8369H14.6441V20.6774L12.3652 20.1164C12.2404 20.1164 12.1158 20.1254 11.9922 20.1432L11.8719 20.1637C11.84 20.1701 11.808 20.1765 11.7766 20.1842C11.7478 20.1906 11.7222 20.1989 11.6954 20.2066C11.6685 20.2143 11.6442 20.2206 11.6192 20.229C11.5943 20.2373 11.5719 20.2437 11.5489 20.252C11.2028 20.3708 10.8889 20.5678 10.6314 20.8278C10.5193 20.9353 10.4184 21.0538 10.3301 21.1816C10.3112 21.2055 10.2943 21.231 10.2795 21.2577C10.2621 21.2833 10.2461 21.3097 10.2316 21.3371C10.2186 21.3575 10.207 21.3789 10.197 21.401C10.19 21.4119 10.1829 21.4234 10.1765 21.4356C10.1701 21.4477 10.1644 21.4605 10.1586 21.472C10.1194 21.5493 10.0846 21.6288 10.0543 21.71C10.0428 21.7401 10.032 21.774 10.0224 21.8022C10.0186 21.8124 10.0154 21.8229 10.0128 21.8335C10.0019 21.8655 9.99229 21.8975 9.98397 21.9308C9.97566 21.964 9.96542 22.0018 9.9571 22.0382C9.95659 22.0425 9.95659 22.0468 9.9571 22.051C9.925 22.2088 9.90871 22.3693 9.90848 22.5302C9.90773 23.057 10.0809 23.5693 10.4011 23.9876C10.4126 24.003 10.4248 24.0183 10.4376 24.0337C10.4491 24.0484 10.4612 24.0631 10.4747 24.0778C10.5233 24.1348 10.5777 24.1924 10.6346 24.2474C10.6679 24.2806 10.6986 24.3114 10.7344 24.3427C11.1373 24.7005 11.6478 24.9141 12.1854 24.9498C12.487 24.9548 12.788 24.9212 13.0811 24.85L13.1003 24.8456C13.3652 24.7816 13.655 24.6914 13.955 24.5948L14.3389 24.4854C14.4406 24.4553 14.5436 24.4252 14.6466 24.3964L14.6441 29.2318ZM29.2597 24.971C29.2543 26.0994 28.8037 27.18 28.0057 27.9779C27.2078 28.7758 26.1272 29.2265 24.9988 29.2318H15.8667V23.6831H15.8494V23.6006C15.8173 23.4892 15.7463 23.393 15.6494 23.3295C15.5524 23.266 15.4359 23.2394 15.321 23.2544C14.8251 23.3184 14.2333 23.502 13.6703 23.6671C13.1246 23.8322 12.6282 23.9812 12.3652 23.9812C11.9697 23.9827 11.5895 23.8282 11.307 23.5513C11.1715 23.4191 11.0639 23.2612 10.9904 23.0867C10.9169 22.9123 10.879 22.7249 10.879 22.5357C10.879 22.3464 10.9169 22.159 10.9904 21.9846C11.0639 21.8102 11.1715 21.6522 11.307 21.52C11.5892 21.2426 11.9696 21.0881 12.3652 21.0901C12.6282 21.0901 13.1406 21.2392 13.6703 21.4042C14.2314 21.5686 14.8251 21.751 15.321 21.8162C15.4429 21.8313 15.566 21.7986 15.6645 21.725C15.763 21.6515 15.8292 21.5427 15.8494 21.4215V21.4042L15.8667 21.3882V16.0199H21.2177C21.2584 16.022 21.2985 16.0103 21.3316 15.9866C21.4388 15.9547 21.5311 15.8857 21.5919 15.7919C21.6528 15.6981 21.6782 15.5857 21.6637 15.4748C21.6125 14.979 21.4161 14.3872 21.2497 13.8223C21.0847 13.2945 20.9356 12.782 20.9356 12.5191C20.9341 12.1235 21.0886 11.7433 21.3655 11.4609C21.4988 11.3246 21.6581 11.2163 21.8339 11.1426C22.0097 11.0689 22.1985 11.0311 22.3892 11.0316C22.5774 11.031 22.7637 11.0688 22.9368 11.1426C23.11 11.2164 23.2663 11.3247 23.3962 11.4609C23.6736 11.743 23.8281 12.1234 23.8261 12.5191C23.8261 12.782 23.677 13.2945 23.512 13.8223C23.3469 14.384 23.1646 14.979 23.0993 15.4748C23.0966 15.4943 23.0956 15.514 23.0961 15.5337C23.0973 15.6489 23.14 15.7598 23.2164 15.8461C23.2928 15.9324 23.3977 15.9882 23.512 16.0033H23.5292L23.5452 16.0193H29.259L29.2597 24.971ZM29.2597 14.7986H24.2387L24.8005 12.5197C24.8004 12.3945 24.7914 12.2694 24.7736 12.1454C24.7672 12.1058 24.7608 12.0642 24.7525 12.0245C24.7403 11.9644 24.7275 11.9062 24.7115 11.8473C24.6955 11.7884 24.6763 11.7328 24.6578 11.6758C24.6431 11.6394 24.629 11.6016 24.6149 11.5652C24.6009 11.5287 24.5849 11.4922 24.5669 11.4551C24.549 11.418 24.5337 11.3854 24.5151 11.3508C24.4986 11.3177 24.4805 11.2855 24.4607 11.2542C24.4478 11.2296 24.4335 11.2057 24.4179 11.1826C24.4025 11.157 24.3865 11.1333 24.3705 11.1084C24.3545 11.0834 24.3353 11.0604 24.3181 11.0386C24.3104 11.0271 24.3021 11.0162 24.2931 11.0047C24.2842 10.9932 24.2771 10.983 24.2675 10.9715L24.2106 10.9017C24.1741 10.8608 24.1377 10.8211 24.0993 10.7827C24.0916 10.775 24.0833 10.7674 24.0756 10.761C24.0736 10.7587 24.0715 10.7565 24.0692 10.7546C24.034 10.7194 23.9975 10.6861 23.9611 10.6548C23.9246 10.6234 23.9009 10.6023 23.8696 10.5786L23.8267 10.5454C23.8267 10.5454 23.8267 10.5454 23.8235 10.5422C23.8203 10.539 23.8031 10.5294 23.7915 10.5211C23.7895 10.5185 23.7869 10.5166 23.7839 10.5153C23.7816 10.5126 23.7788 10.5104 23.7755 10.5089C23.7442 10.4865 23.7116 10.4641 23.6789 10.4449L23.615 10.4065L23.5785 10.3829C23.5446 10.3643 23.51 10.3451 23.4749 10.3278C23.4397 10.3106 23.4051 10.2927 23.3706 10.2767C23.336 10.2607 23.3066 10.2485 23.274 10.2357C23.1771 10.1953 23.0775 10.1619 22.9758 10.1359C22.9439 10.1262 22.9114 10.118 22.8786 10.1116C22.8745 10.1099 22.8702 10.1088 22.8658 10.1084C22.5444 10.0427 22.213 10.0436 21.892 10.1111C21.571 10.1785 21.2673 10.3111 20.9996 10.5006C20.974 10.5185 20.9484 10.5377 20.9234 10.5575C20.8985 10.5774 20.8697 10.6004 20.8441 10.6215C20.8185 10.6426 20.7904 10.6669 20.7629 10.6925C20.7353 10.7181 20.6989 10.7527 20.6695 10.7846C20.6125 10.8435 20.5588 10.9004 20.5108 10.9593C20.4858 10.9894 20.4622 11.0233 20.4379 11.0508C20.1616 11.4249 19.9982 11.8702 19.967 12.3342C19.9627 12.5547 19.9796 12.7752 20.0175 12.9925C20.0175 12.9925 20.0175 12.997 20.0175 12.9983C20.0853 13.3271 20.2031 13.709 20.3201 14.1038C20.3566 14.2317 20.395 14.3597 20.4295 14.4908C20.4602 14.5926 20.4903 14.6956 20.5185 14.7986H15.6869V9.95998L16.3798 10.1564C16.992 10.3547 17.5698 10.5211 17.9658 10.5211C18.0906 10.5213 18.2153 10.5123 18.3388 10.4942C18.8539 10.4184 19.331 10.1788 19.6996 9.81091C19.7156 9.79492 19.7309 9.77892 19.7469 9.76485C19.753 9.75988 19.7584 9.75407 19.7629 9.74757C19.7853 9.72518 19.8058 9.70151 19.8269 9.67784L19.887 9.60491C19.9254 9.55692 19.9599 9.50958 19.9932 9.46032C20.0265 9.41105 20.0572 9.36179 20.0885 9.30997C20.1199 9.25815 20.1423 9.21592 20.1666 9.16858C20.2313 9.0415 20.2842 8.90872 20.3246 8.77192L20.3381 8.72778C20.3381 8.72778 20.3381 8.72778 20.3381 8.72394C20.3381 8.71562 20.3425 8.70794 20.3444 8.69963C20.3553 8.65996 20.363 8.6203 20.3713 8.58063C20.3758 8.55696 20.3809 8.53265 20.3873 8.50898C20.3937 8.4853 20.3963 8.46163 20.3995 8.43604C20.4027 8.41045 20.4059 8.3951 20.4091 8.37206C20.4123 8.34903 20.4155 8.33112 20.4174 8.30809C20.4174 8.2729 20.4238 8.23835 20.4238 8.20508C20.4271 8.17342 20.4282 8.14157 20.427 8.10976C20.427 8.07521 20.427 8.0413 20.427 8.00675C20.408 7.54519 20.2548 7.09919 19.9862 6.72337C19.9702 6.6997 19.951 6.67603 19.9337 6.65236C19.8626 6.55991 19.7848 6.47288 19.7008 6.39197C19.672 6.36382 19.6433 6.33695 19.6151 6.31136C19.601 6.29792 19.5857 6.28513 19.571 6.27169L19.5262 6.23394C19.1363 5.91357 18.656 5.7232 18.1526 5.6895C17.851 5.68518 17.5501 5.71871 17.2569 5.7893C17.2515 5.7907 17.2461 5.79241 17.2409 5.79442C16.976 5.8584 16.683 5.94669 16.383 6.04521C16.255 6.08168 16.1271 6.11942 15.9991 6.15461C15.8974 6.18468 15.7944 6.21475 15.6914 6.2429V1.22325H24.9988C25.1459 1.22325 25.2905 1.23092 25.4332 1.245C25.7154 1.27374 25.9941 1.33075 26.2649 1.41518C26.3971 1.45592 26.527 1.50398 26.6539 1.55913C26.7179 1.58472 26.7818 1.61479 26.8458 1.64486C26.8887 1.66533 26.9315 1.68772 26.9738 1.70883L27.0051 1.72611C27.0243 1.73698 27.0435 1.74658 27.0627 1.7581C27.0819 1.76961 27.1004 1.77857 27.1196 1.78945C27.1231 1.79112 27.1263 1.79327 27.1292 1.79584C27.1339 1.79763 27.1382 1.80023 27.142 1.80352C27.1461 1.80488 27.1498 1.80706 27.1529 1.80992C27.1529 1.80992 27.1593 1.81312 27.1625 1.81504C27.1862 1.82783 27.2086 1.84191 27.231 1.85598C27.2414 1.86163 27.2515 1.86804 27.261 1.87517C27.286 1.88925 27.3096 1.90524 27.334 1.92124L27.3704 1.94491L27.4466 1.99737L27.5035 2.03832C27.5035 2.03832 27.5035 2.03832 27.5067 2.03832C27.5227 2.04919 27.5368 2.06007 27.5508 2.07158C27.5709 2.08491 27.5899 2.09966 27.6078 2.11573C27.6474 2.1458 27.6858 2.17587 27.7236 2.20978C27.7321 2.21535 27.7403 2.22155 27.7479 2.22833L27.7524 2.23345L27.7741 2.25136C27.7966 2.26884 27.8179 2.28764 27.8381 2.30766C27.843 2.31079 27.8473 2.31468 27.8509 2.31918C27.8629 2.32745 27.874 2.33687 27.8842 2.34733L27.9091 2.371C27.9986 2.45616 28.0832 2.5463 28.1625 2.64098C28.1681 2.64642 28.1735 2.65218 28.1785 2.65826C28.1896 2.66936 28.2001 2.68111 28.2098 2.69344C28.2345 2.71903 28.2578 2.74594 28.2795 2.77406C28.3103 2.80924 28.3384 2.84379 28.3653 2.88026C28.3921 2.91672 28.4369 2.97366 28.4702 3.02165C28.4798 3.03377 28.4888 3.04637 28.4971 3.05939C28.502 3.06533 28.5063 3.07176 28.5099 3.07859C28.5236 3.09631 28.5357 3.11515 28.5463 3.13489C28.5546 3.14576 28.5623 3.15856 28.5706 3.17135C28.6052 3.22018 28.6368 3.27103 28.6653 3.32362C28.6954 3.37608 28.7261 3.4279 28.7543 3.48036C28.7734 3.51875 28.7939 3.5565 28.8112 3.59488C28.829 3.62552 28.845 3.65713 28.8592 3.68957C28.8765 3.72796 28.8956 3.76762 28.9116 3.80729C28.9225 3.83096 28.9321 3.85463 28.9417 3.8783C28.9622 3.92629 28.9814 3.97363 28.9986 4.02289C29.0483 4.15274 29.091 4.28515 29.1266 4.41955C29.2166 4.76658 29.2617 5.12371 29.261 5.48221L29.2597 14.7986Z" fill="#020202"/>
</svg>
