<svg width="31" height="9" viewBox="0 0 31 9" fill="none" xmlns="http://www.w3.org/2000/svg">
<path d="M5.687 7.054C5.159 7.78 4.41833 8.143 3.465 8.143C2.51167 8.143 1.76733 7.78 1.232 7.054C0.704 6.328 0.44 5.36 0.44 4.15C0.44 2.94 0.704 1.972 1.232 1.246C1.76733 0.519999 2.51167 0.156999 3.465 0.156999C4.41833 0.156999 5.159 0.519999 5.687 1.246C6.22233 1.972 6.49 2.94 6.49 4.15C6.49 5.36 6.22233 6.328 5.687 7.054ZM3.465 6.911C4.037 6.911 4.47333 6.67267 4.774 6.196C5.07467 5.71933 5.225 5.03733 5.225 4.15C5.225 3.26267 5.07467 2.58067 4.774 2.104C4.47333 1.62733 4.037 1.389 3.465 1.389C2.90033 1.389 2.464 1.62733 2.156 2.104C1.85533 2.58067 1.705 3.26267 1.705 4.15C1.705 5.03733 1.85533 5.71933 2.156 6.196C2.464 6.67267 2.90033 6.911 3.465 6.911ZM12.6157 7.054C12.0877 7.78 11.347 8.143 10.3937 8.143C9.44038 8.143 8.69604 7.78 8.16071 7.054C7.63271 6.328 7.36871 5.36 7.36871 4.15C7.36871 2.94 7.63271 1.972 8.16071 1.246C8.69604 0.519999 9.44038 0.156999 10.3937 0.156999C11.347 0.156999 12.0877 0.519999 12.6157 1.246C13.151 1.972 13.4187 2.94 13.4187 4.15C13.4187 5.36 13.151 6.328 12.6157 7.054ZM10.3937 6.911C10.9657 6.911 11.402 6.67267 11.7027 6.196C12.0034 5.71933 12.1537 5.03733 12.1537 4.15C12.1537 3.26267 12.0034 2.58067 11.7027 2.104C11.402 1.62733 10.9657 1.389 10.3937 1.389C9.82904 1.389 9.39271 1.62733 9.08471 2.104C8.78404 2.58067 8.63371 3.26267 8.63371 4.15C8.63371 5.03733 8.78404 5.71933 9.08471 6.196C9.39271 6.67267 9.82904 6.911 10.3937 6.911ZM15.8484 3.765C15.6871 3.92633 15.4928 4.007 15.2654 4.007C15.0381 4.007 14.8438 3.92633 14.6824 3.765C14.5211 3.60367 14.4404 3.40933 14.4404 3.182C14.4404 2.94733 14.5174 2.753 14.6714 2.599C14.8328 2.43767 15.0308 2.357 15.2654 2.357C15.4928 2.357 15.6871 2.43767 15.8484 2.599C16.0098 2.76033 16.0904 2.95467 16.0904 3.182C16.0904 3.40933 16.0098 3.60367 15.8484 3.765ZM15.8484 7.89C15.6871 8.05133 15.4928 8.132 15.2654 8.132C15.0381 8.132 14.8438 8.05133 14.6824 7.89C14.5211 7.72867 14.4404 7.53433 14.4404 7.307C14.4404 7.07967 14.5174 6.88533 14.6714 6.724C14.8328 6.56267 15.0308 6.482 15.2654 6.482C15.4928 6.482 15.6871 6.56267 15.8484 6.724C16.0098 6.88533 16.0904 7.07967 16.0904 7.307C16.0904 7.53433 16.0098 7.72867 15.8484 7.89ZM22.3481 7.054C21.8201 7.78 21.0795 8.143 20.1261 8.143C19.1728 8.143 18.4285 7.78 17.8931 7.054C17.3651 6.328 17.1011 5.36 17.1011 4.15C17.1011 2.94 17.3651 1.972 17.8931 1.246C18.4285 0.519999 19.1728 0.156999 20.1261 0.156999C21.0795 0.156999 21.8201 0.519999 22.3481 1.246C22.8835 1.972 23.1511 2.94 23.1511 4.15C23.1511 5.36 22.8835 6.328 22.3481 7.054ZM20.1261 6.911C20.6981 6.911 21.1345 6.67267 21.4351 6.196C21.7358 5.71933 21.8861 5.03733 21.8861 4.15C21.8861 3.26267 21.7358 2.58067 21.4351 2.104C21.1345 1.62733 20.6981 1.389 20.1261 1.389C19.5615 1.389 19.1251 1.62733 18.8171 2.104C18.5165 2.58067 18.3661 3.26267 18.3661 4.15C18.3661 5.03733 18.5165 5.71933 18.8171 6.196C19.1251 6.67267 19.5615 6.911 20.1261 6.911ZM29.2768 7.054C28.7488 7.78 28.0082 8.143 27.0548 8.143C26.1015 8.143 25.3572 7.78 24.8218 7.054C24.2938 6.328 24.0298 5.36 24.0298 4.15C24.0298 2.94 24.2938 1.972 24.8218 1.246C25.3572 0.519999 26.1015 0.156999 27.0548 0.156999C28.0082 0.156999 28.7488 0.519999 29.2768 1.246C29.8122 1.972 30.0798 2.94 30.0798 4.15C30.0798 5.36 29.8122 6.328 29.2768 7.054ZM27.0548 6.911C27.6268 6.911 28.0632 6.67267 28.3638 6.196C28.6645 5.71933 28.8148 5.03733 28.8148 4.15C28.8148 3.26267 28.6645 2.58067 28.3638 2.104C28.0632 1.62733 27.6268 1.389 27.0548 1.389C26.4902 1.389 26.0538 1.62733 25.7458 2.104C25.4452 2.58067 25.2948 3.26267 25.2948 4.15C25.2948 5.03733 25.4452 5.71933 25.7458 6.196C26.0538 6.67267 26.4902 6.911 27.0548 6.911Z" fill="#606264"/>
</svg>
